<svg xmlns="http://www.w3.org/2000/svg" viewBox="0 0 320 240" fill="none">
  <defs>
    <linearGradient id="leaf-gold" x1="65" y1="67" x2="154" y2="170" gradientUnits="userSpaceOnUse">
      <stop stop-color="#F3C665"/>
      <stop offset="1" stop-color="#C9822C"/>
    </linearGradient>
    <linearGradient id="leaf-rust" x1="159" y1="53" x2="233" y2="153" gradientUnits="userSpaceOnUse">
      <stop stop-color="#E98A45"/>
      <stop offset="1" stop-color="#B85833"/>
    </linearGradient>
    <linearGradient id="leaf-olive" x1="101" y1="113" x2="221" y2="205" gradientUnits="userSpaceOnUse">
      <stop stop-color="#A8B85A"/>
      <stop offset="1" stop-color="#718239"/>
    </linearGradient>
    <filter id="leaves-shadow" x="45" y="42" width="225" height="181" filterUnits="userSpaceOnUse">
      <feDropShadow dx="0" dy="8" stdDeviation="7" flood-color="#0C362B" flood-opacity=".17"/>
    </filter>
  </defs>
  <ellipse cx="160" cy="208" rx="89" ry="10" fill="#0C362B" opacity=".12"/>
  <g filter="url(#leaves-shadow)" stroke="#0C362B" stroke-width="5" stroke-linecap="round" stroke-linejoin="round">
    <path d="M61 75c42-18 80-6 99 24-16 28-50 38-88 21 10-11 11-29-11-45Z" fill="url(#leaf-gold)"/>
    <path d="M78 84c23 8 44 18 67 31M101 93l-5 18M121 101l-5 19"/>
    <path d="M190 52c30 25 40 58 22 86-31 4-57-17-61-51 14 3 27-6 39-35Z" fill="url(#leaf-rust)"/>
    <path d="M190 66c-11 22-19 42-26 64M181 84l18 6M173 103l18 6"/>
    <path d="M245 113c-4 41-28 68-61 69-21-22-18-54 7-76 4 14 18 20 54 7Z" fill="#D6963D"/>
    <path d="M231 121c-19 14-36 29-51 47M215 134l-4 17M200 146l-2 17"/>
    <path d="M98 163c31-31 70-37 100-17-1 34-30 58-71 58 7-15-2-29-29-41Z" fill="url(#leaf-olive)"/>
    <path d="M112 168c26 4 50 8 73 13M137 170l-9 18M161 175l-8 17"/>
    <path d="M72 197c55-7 105-13 174-25" fill="none" opacity=".45"/>
  </g>
</svg>
