<svg xmlns="http://www.w3.org/2000/svg" viewBox="0 0 320 240" fill="none">
  <defs>
    <linearGradient id="produce-basket" x1="67" y1="143" x2="244" y2="207" gradientUnits="userSpaceOnUse">
      <stop stop-color="#E8BD66"/>
      <stop offset="1" stop-color="#BC7F35"/>
    </linearGradient>
    <filter id="produce-shadow" x="40" y="33" width="241" height="196" filterUnits="userSpaceOnUse">
      <feDropShadow dx="0" dy="8" stdDeviation="7" flood-color="#0C362B" flood-opacity=".18"/>
    </filter>
  </defs>
  <ellipse cx="160" cy="211" rx="94" ry="11" fill="#0C362B" opacity=".12"/>
  <g filter="url(#produce-shadow)" stroke="#0C362B" stroke-width="5" stroke-linecap="round" stroke-linejoin="round">
    <path d="M72 141h176l-14 58c-1.8 7.5-8.5 12.8-16.2 12.8H102.2c-7.7 0-14.4-5.3-16.2-12.8l-14-58Z" fill="url(#produce-basket)"/>
    <path d="M65 142c0-8.3 6.7-15 15-15h160c8.3 0 15 6.7 15 15s-6.7 15-15 15H80c-8.3 0-15-6.7-15-15Z" fill="#FFE8A5"/>
    <path d="M99 127c-10-18-6-38 10-52 18 7 28 24 23 47" fill="#EF7541"/>
    <path d="M109 74c-2-13 5-23 18-29 9 11 5 23-18 29Z" fill="#54AB56"/>
    <path d="M150 129c-8-28 2-50 26-60 21 16 24 39 9 62" fill="#F0B83F"/>
    <path d="M175 69c-4-13 2-24 15-30 10 10 7 22-15 30Z" fill="#4CA753"/>
    <path d="M176 69c10-13 23-16 37-8-5 16-18 19-37 8Z" fill="#79C964"/>
    <path d="M206 130c0-23 13-40 35-45 15 19 10 39-11 53" fill="#E85C4A"/>
    <path d="M222 90c7-11 17-15 29-10-2 13-12 18-29 10Z" fill="#55AB55"/>
    <path d="M77 126c-3-18 7-30 25-35" fill="none"/>
    <path d="M77 126c-14-4-21-14-18-27 14-1 22 8 18 27Z" fill="#F4D24E"/>
    <path d="M88 173h144M93 190h134" opacity=".28"/>
    <path d="M112 158v51M145 158v51M178 158v51M211 158v51" opacity=".24"/>
  </g>
</svg>
