<svg xmlns="http://www.w3.org/2000/svg" viewBox="0 0 320 240" fill="none">
  <defs>
    <linearGradient id="scraps-bowl" x1="76" y1="143" x2="241" y2="205" gradientUnits="userSpaceOnUse">
      <stop stop-color="#F4D88C"/>
      <stop offset="1" stop-color="#D9A84C"/>
    </linearGradient>
    <filter id="scraps-shadow" x="43" y="37" width="234" height="191" filterUnits="userSpaceOnUse">
      <feDropShadow dx="0" dy="8" stdDeviation="7" flood-color="#0C362B" flood-opacity=".17"/>
    </filter>
  </defs>
  <ellipse cx="160" cy="211" rx="92" ry="11" fill="#0C362B" opacity=".12"/>
  <g filter="url(#scraps-shadow)" stroke="#0C362B" stroke-width="5" stroke-linecap="round" stroke-linejoin="round">
    <path d="M77 146h166l-15 46c-3.6 11-13.9 18-25.4 18h-85.2c-11.5 0-21.8-7-25.4-18l-15-46Z" fill="url(#scraps-bowl)"/>
    <path d="M74 145c0-8 6.5-14.5 14.5-14.5h143c8 0 14.5 6.5 14.5 14.5s-6.5 14.5-14.5 14.5h-143C80.5 159.5 74 153 74 145Z" fill="#FFEAB1"/>
    <path d="M102 132c-7-17-2-35 14-46 13 11 17 28 9 47" fill="#EE8F3F"/>
    <path d="M110 84c-5-8-2-17 7-21 7 6 7 15 1 22" fill="#55A84A"/>
    <path d="M117 84c3-11 12-17 22-13-1 11-9 17-22 13Z" fill="#72C867"/>
    <path d="M142 127c-2-22 8-39 29-47 16 16 16 35 3 51" fill="#E85F4B"/>
    <path d="M158 80c-2-9 3-16 12-18"/>
    <path d="M171 65c8-5 17-3 22 5-7 7-16 6-22-5Z" fill="#4FAE56"/>
    <path d="M192 132c5-22 23-37 43-34 2 24-10 39-34 44" fill="#F3C84D"/>
    <path d="M204 127c12-2 22-10 28-23" opacity=".35"/>
    <path d="M83 124c10-24 29-36 50-30" fill="none"/>
    <path d="M83 124c-4-14 1-25 14-32 9 12 6 25-14 32Z" fill="#F4CB45"/>
    <path d="M86 119c-13-3-20-12-18-24 13-1 21 7 18 24Z" fill="#F7DF68"/>
    <path d="M132 130c-8-12-5-24 7-31 10 9 10 21-7 31Z" fill="#68B95A"/>
    <path d="M188 135c-9-11-7-23 4-31 11 8 12 20-4 31Z" fill="#8AC85A"/>
  </g>
</svg>
