<svg xmlns="http://www.w3.org/2000/svg" viewBox="0 0 320 240" fill="none">
  <defs>
    <linearGradient id="sugar-block" x1="94" y1="90" x2="201" y2="174" gradientUnits="userSpaceOnUse">
      <stop stop-color="#C9813E"/>
      <stop offset="1" stop-color="#8B4627"/>
    </linearGradient>
    <linearGradient id="sugar-tray" x1="62" y1="151" x2="251" y2="204" gradientUnits="userSpaceOnUse">
      <stop stop-color="#F0C66B"/>
      <stop offset="1" stop-color="#C68A38"/>
    </linearGradient>
    <filter id="sugar-shadow" x="43" y="37" width="235" height="188" filterUnits="userSpaceOnUse">
      <feDropShadow dx="0" dy="8" stdDeviation="7" flood-color="#0C362B" flood-opacity=".18"/>
    </filter>
  </defs>
  <ellipse cx="160" cy="210" rx="94" ry="10" fill="#0C362B" opacity=".12"/>
  <g filter="url(#sugar-shadow)" stroke="#0C362B" stroke-width="5" stroke-linecap="round" stroke-linejoin="round">
    <path d="M67 153h186l-17 47H84l-17-47Z" fill="url(#sugar-tray)"/>
    <path d="M62 151c0-7.7 6.3-14 14-14h168c7.7 0 14 6.3 14 14s-6.3 14-14 14H76c-7.7 0-14-6.3-14-14Z" fill="#FFE6A6"/>
    <path d="M95 102c0-9.4 7.6-17 17-17h47c9.4 0 17 7.6 17 17v39H95v-39Z" fill="url(#sugar-block)"/>
    <path d="M176 113c0-8.8 7.2-16 16-16h34c8.8 0 16 7.2 16 16v31h-66v-31Z" fill="#A75A31"/>
    <path d="M112 85c3-15 14-26 31-31 8 15 3 27-14 36" fill="#45A254"/>
    <path d="M143 54c15-3 27 4 34 19-15 8-28 2-34-19Z" fill="#74C564"/>
    <path d="M116 108h39M116 121h39" opacity=".3"/>
    <path d="M190 116h27M190 128h27" opacity=".28"/>
    <path d="M91 181h138" opacity=".33"/>
    <path d="M112 166v34M142 166v34M172 166v34M202 166v34" opacity=".26"/>
  </g>
</svg>
