<svg preserveAspectRatio="xMidYMid meet" width="83" height="82" overflow="visible" style="display: block;" viewBox="0 0 83 82" fill="none" xmlns="http://www.w3.org/2000/svg">
<g id="Frame">
<path id="Vector" d="M29.05 71.75C23.8049 71.75 19.3805 69.9711 15.7769 66.4132C12.1733 62.8553 10.3727 58.4842 10.375 53.3C10.375 51.1361 10.7497 49.0292 11.499 46.9792C12.2483 44.9292 13.3146 43.0785 14.6979 41.4271L26.975 26.8208L18.5885 10.25H64.4115L56.025 26.8208L68.3021 41.4271C69.6854 43.0785 70.7517 44.9292 71.501 46.9792C72.2503 49.0292 72.625 51.1361 72.625 53.3C72.625 58.4819 70.8094 62.853 67.1781 66.4132C63.5469 69.9733 59.1375 71.7523 53.95 71.75H29.05ZM41.5 54.6667C39.5979 54.6667 37.9702 53.9981 36.6168 52.6611C35.2635 51.324 34.5856 49.7148 34.5833 47.8333C34.581 45.9519 35.2589 44.3438 36.6168 43.009C37.9748 41.6742 39.6025 41.0046 41.5 41C43.3975 40.9954 45.0263 41.6651 46.3866 43.009C47.7469 44.3529 48.4236 45.961 48.4167 47.8333C48.4097 49.7057 47.7331 51.3149 46.3866 52.6611C45.0402 54.0073 43.4113 54.6758 41.5 54.6667ZM33.2865 23.9167H49.7135L53.1719 17.0833H29.8281L33.2865 23.9167ZM29.05 64.9167H53.95C57.2354 64.9167 60.0171 63.7926 62.295 61.5444C64.5728 59.2963 65.7106 56.5481 65.7083 53.3C65.7083 51.9333 65.4628 50.6099 64.9717 49.3298C64.4806 48.0497 63.8039 46.896 62.9417 45.8688L50.2323 30.75H32.8542L20.0583 45.7833C19.1937 46.8083 18.5171 47.9757 18.0283 49.2854C17.5395 50.5951 17.294 51.9333 17.2917 53.3C17.2917 56.5458 18.4306 59.294 20.7085 61.5444C22.9864 63.7949 25.7669 64.9189 29.05 64.9167Z" fill="var(--fill-0, #006241)"/>
</g>
</svg>
