<svg preserveAspectRatio="xMidYMid meet" width="100" height="85" overflow="visible" style="display: block;" viewBox="0 0 100 85" fill="none" xmlns="http://www.w3.org/2000/svg">
<g id="Frame">
<path id="Vector" d="M90.9167 54.6125L80.5 69.9479C78.4583 72.9937 74.6667 74.5875 70.8333 74.375H62.5V81.4583L52.0833 65.5208L62.5 49.5833V56.6667H74.25L65 43.0312L83.0417 34.1771L90.5417 45.2271C92.7083 47.9542 93 51.6021 90.9167 54.6125ZM38.375 10.8375H59.2083C63.2917 10.8375 66.8333 12.8562 68.5417 15.7604L72.7083 21.9229L79.9167 18.3812L68.9167 34L47.4583 34.3187L54.6667 30.7771L48.7917 22.1L39.5833 35.7354L21.5 26.8812L29 15.8312C30.7083 12.8917 34.25 10.8375 38.375 10.8375ZM21.0417 69.9833L10.625 54.6479C8.58333 51.6375 8.875 48.025 11 45.2979L15.1667 39.1708L7.95833 35.6292L29.375 35.9125L40.4167 51.5667L33.2083 48.025L27.3333 56.6667H45.8333V74.375H30.8333C28.8813 74.4951 26.9287 74.1472 25.1978 73.3708C23.4668 72.5944 22.0268 71.4208 21.0417 69.9833Z" fill="var(--fill-0, #006241)"/>
</g>
</svg>
