<svg preserveAspectRatio="xMidYMid meet" width="137" height="112" overflow="visible" style="display: block;" viewBox="0 0 137 112" fill="none" xmlns="http://www.w3.org/2000/svg">
<g id="Frame">
<path id="Vector" d="M68.5 60.6667L57.0833 51.3333M68.5 56L79.9167 46.6667M68.5 98V37.3333M56.0787 74.6667C53.5811 74.5471 51.1459 73.9816 48.9444 73.01C46.7429 72.0384 44.8285 70.6842 43.336 69.0428C41.8434 67.4013 40.8089 65.5125 40.3053 63.509C39.8016 61.5056 39.841 59.4363 40.4207 57.4467C38.3513 56.0378 36.7175 54.2498 35.6519 52.2278C34.5864 50.2059 34.1192 48.007 34.2883 45.8097C34.4573 43.6124 35.2579 41.4787 36.6249 39.5819C37.992 37.685 39.887 36.0784 42.156 34.8927C40.166 32.0024 39.4957 28.6284 40.2646 25.3718C41.0336 22.1152 43.1919 19.1875 46.3549 17.1105C49.5179 15.0334 53.4802 13.9419 57.5358 14.0303C61.5914 14.1187 65.4769 15.3814 68.5 17.5933C71.5238 15.3849 75.408 14.1252 79.4613 14.0385C83.5146 13.9518 87.4741 15.0437 90.635 17.1198C93.796 19.1959 95.9532 22.1216 96.7229 25.3762C97.4926 28.6307 96.8248 32.0029 94.8383 34.8927C97.1077 36.0781 99.0032 37.6843 100.371 39.581C101.738 41.4776 102.539 43.6112 102.709 45.8085C102.879 48.0058 102.412 50.2048 101.347 52.227C100.282 54.2491 98.6484 56.0374 96.5793 57.4467C97.1785 59.5037 97.2 61.645 96.6421 63.7098C96.0841 65.7746 94.9613 67.7092 93.3579 69.3685C91.7545 71.0278 89.7122 72.3685 87.3843 73.2902C85.0563 74.2119 82.5032 74.6904 79.9167 74.69H57.0833L56.0787 74.6667Z" stroke="var(--stroke-0, #006241)" stroke-width="5.33333" stroke-linecap="round" stroke-linejoin="round"/>
</g>
</svg>
