<svg preserveAspectRatio="xMidYMid meet" width="100" height="85" overflow="visible" style="display: block;" viewBox="0 0 100 85" fill="none" xmlns="http://www.w3.org/2000/svg">
<g id="Frame" clip-path="url(#clip0_0_46)">
<path id="Vector" d="M79.9168 54.6125L69.5002 69.9479C67.4585 72.9938 63.6668 74.5875 59.8335 74.375H51.5002V81.4584L41.0835 65.5209L51.5002 49.5834V56.6667H63.2502L54.0002 43.0313L72.0418 34.1771L79.5418 45.2271C81.7085 47.9542 82.0002 51.6021 79.9168 54.6125ZM27.3752 10.8375H48.2085C52.2918 10.8375 55.8335 12.8563 57.5418 15.7604L61.7085 21.9229L68.9168 18.3813L57.9168 34L36.4585 34.3188L43.6668 30.7771L37.7918 22.1L28.5835 35.7354L10.5002 26.8813L18.0002 15.8313C19.7085 12.8917 23.2502 10.8375 27.3752 10.8375ZM10.0418 69.9834L-0.374837 54.6479C-2.4165 51.6375 -2.12484 48.025 0.000163569 45.2979L4.16683 39.1709L-3.0415 35.6292L18.3752 35.9125L29.4168 51.5667L22.2085 48.025L16.3335 56.6667H34.8335V74.375H19.8335C17.8814 74.4951 15.9289 74.1472 14.1979 73.3708C12.467 72.5945 11.027 71.4208 10.0418 69.9834Z" fill="var(--fill-0, #006241)"/>
</g>
<defs>
<clipPath id="clip0_0_46">
<rect width="100" height="85" fill="white"/>
</clipPath>
</defs>
</svg>
