<svg preserveAspectRatio="xMidYMid meet" width="63.0833" height="77.0521" overflow="visible" style="display: block;" viewBox="0 0 63.0833 77.0521" fill="none" xmlns="http://www.w3.org/2000/svg">
<g id="Group">
<path id="Vector" d="M14.5016 17.2998C20.3125 22.2866 31.4109 21.1487 31.4109 21.1487C31.4109 21.1487 32.7391 11.6177 26.9283 6.62724C21.1137 1.64049 10.0153 2.77841 10.0153 2.77841C10.0153 2.77841 8.69071 12.3094 14.5016 17.2998Z" stroke="var(--stroke-0, #006241)" stroke-width="5.33333" stroke-linecap="round" stroke-linejoin="round"/>
<path id="Vector_2" d="M56.8073 45.698C57.7646 45.698 58.6826 45.3202 59.3595 44.6477C60.0364 43.9752 60.4167 43.0631 60.4167 42.1121V34.9402C60.4167 33.9892 60.0364 33.0771 59.3595 32.4046C58.6826 31.7321 57.7646 31.3543 56.8073 31.3543H6.27604C5.31878 31.3543 4.40072 31.7321 3.72383 32.4046C3.04694 33.0771 2.66667 33.9892 2.66667 34.9402V42.1121C2.66667 43.0631 3.04694 43.9752 3.72383 44.6477C4.40072 45.3202 5.31878 45.698 6.27604 45.698M56.8073 45.698H6.27604M56.8073 45.698L49.5885 74.3854H13.4948L6.27604 45.698M31.6716 20.4889C31.6716 20.4889 42.7704 21.5862 48.5815 16.7775C54.3926 11.9652 53.068 2.77442 53.068 2.77442C53.068 2.77442 41.9692 1.67713 36.1581 6.48586C30.347 11.2982 31.6716 20.4889 31.6716 20.4889Z" stroke="var(--stroke-0, #006241)" stroke-width="5.33333" stroke-linecap="round" stroke-linejoin="round"/>
</g>
</svg>
